<svg width="50" height="50" viewBox="0 0 24 24" fill="none" xmlns="http://www.w3.org/2000/svg">
<path fill-rule="evenodd" clip-rule="evenodd" d="M2.47802 7.9154C2.25 8.79871 2.25 9.94639 2.25 12C2.25 14.3276 2.25 15.4914 2.582 16.4256C3.16141 18.0559 4.44414 19.3386 6.07444 19.918C7.0086 20.25 8.1724 20.25 10.5 20.25L13.5 20.25C15.8276 20.25 16.9914 20.25 17.9256 19.918C19.5559 19.3386 20.8386 18.0559 21.418 16.4256C21.75 15.4914 21.75 14.3276 21.75 12C21.75 9.94641 21.75 8.79874 21.522 7.91542L17.7841 10.6698L17.754 10.692L17.754 10.692C16.6402 11.5127 15.7625 12.1595 15.002 12.6178C14.2228 13.0874 13.5145 13.3926 12.7287 13.4929C12.2452 13.5547 11.7557 13.5547 11.2721 13.493C10.4864 13.3926 9.77801 13.0875 8.99883 12.6179C8.23833 12.1597 7.36056 11.5129 6.24671 10.6922L6.21668 10.6701L2.47802 7.9154ZM3.09185 6.50448L7.10645 9.46247C8.25691 10.3101 9.07915 10.915 9.77304 11.3332C10.4551 11.7442 10.9602 11.941 11.4621 12.005C11.8195 12.0507 12.1813 12.0507 12.5387 12.005C13.0406 11.9409 13.5457 11.7441 14.2277 11.3331C14.9216 10.9149 15.7438 10.31 16.8942 9.46225L20.9082 6.50449C20.2273 5.38896 19.1792 4.52754 17.9256 4.082C16.9914 3.75 15.8276 3.75 13.5 3.75L10.5 3.75C8.1724 3.75 7.0086 3.75 6.07444 4.082C4.82081 4.52754 3.77269 5.38895 3.09185 6.50448Z" fill="#ffffff"></path>
</svg>