<svg width="50" height="50" viewBox="0 0 24 24" fill="none" xmlns="http://www.w3.org/2000/svg">
<path d="M10.2917 16.25H8.375C6.78718 16.25 5.5 17.5372 5.5 19.125C5.5 20.7128 6.78718 22 8.375 22C9.96282 22 11.25 20.7128 11.25 19.125V17.2083C11.25 16.6791 10.8209 16.25 10.2917 16.25Z" fill="#ffffff"></path>
<path d="M10.3418 9.25H8.4251C6.83728 9.25 5.5501 10.5372 5.5501 12.125C5.5501 13.7128 6.83728 15 8.4251 15H10.3418C10.871 15 11.3001 14.5709 11.3001 14.0417V10.2083C11.3001 9.67906 10.871 9.25 10.3418 9.25Z" fill="#ffffff"></path>
<path d="M18.25 12.125C18.25 13.7128 16.9629 15 15.375 15C13.7872 15 12.5 13.7128 12.5 12.125C12.5 10.5372 13.7872 9.25 15.375 9.25C16.9629 9.25 18.25 10.5372 18.25 12.125Z" fill="#ffffff"></path>
<path d="M10.3417 2.25H8.42505C6.83723 2.25 5.55005 3.53718 5.55005 5.125C5.55005 6.71282 6.83723 8 8.42505 8H10.3417C10.871 8 11.3 7.57094 11.3 7.04167V3.20833C11.3 2.67906 10.871 2.25 10.3417 2.25Z" fill="#ffffff"></path>
<path d="M13.7584 2.25H15.675C17.2629 2.25 18.55 3.53718 18.55 5.125C18.55 6.71282 17.2629 8 15.675 8H13.7584C13.2291 8 12.8 7.57094 12.8 7.04167V3.20833C12.8 2.67906 13.2291 2.25 13.7584 2.25Z" fill="#ffffff"></path>
</svg>