<svg width="26" height="26" viewBox="0 0 26 26" fill="none" xmlns="http://www.w3.org/2000/svg">
<g id="pin">
<g id="Group">
<g id="Group_2">
<g id="Vector">
<path d="M13.1534 2.77295C7.5235 2.77295 2.95936 7.30357 4.09219 12.9668C4.84573 16.7339 8.60605 20.2504 11.0397 22.1829C11.835 22.8146 12.2327 23.1304 12.8503 23.2138C13.0215 23.2369 13.2854 23.2369 13.4566 23.2138C14.0741 23.1304 14.4718 22.8146 15.2672 22.183C17.7009 20.2505 21.4613 16.734 22.2147 12.9668C23.3472 7.30357 18.7834 2.77295 13.1534 2.77295Z" stroke="#FBFBFB" stroke-width="1.5" stroke-linejoin="round"/>
<path d="M16.5513 12.0041C16.5513 13.8807 15.0299 15.4021 13.1533 15.4021C11.2767 15.4021 9.75533 13.8807 9.75533 12.0041C9.75533 10.1274 11.2767 8.60612 13.1533 8.60612C15.0299 8.60612 16.5513 10.1274 16.5513 12.0041Z" stroke="#FBFBFB" stroke-width="1.5" stroke-linejoin="round"/>
</g>
</g>
</g>
</g>
</svg>
