<svg width="81" height="80" viewBox="0 0 81 80" fill="none" xmlns="http://www.w3.org/2000/svg">
<g id="vector" clip-path="url(#clip0_121_1345)">
<path id="Vector" fill-rule="evenodd" clip-rule="evenodd" d="M79.9998 39.9999C79.9998 17.9086 62.0913 0 39.9999 0C17.9086 0 0 17.9085 0 39.9999C0 62.0913 17.9085 79.9999 39.9999 79.9999C62.0913 79.9999 79.9998 62.0913 79.9998 39.9999Z" fill="#0C0C0C"/>
<g id="Group 1000003540">
<path id="Vector_2" d="M39.3919 28.4324L32.6293 30.2121C31.8341 30.4213 31.4366 30.5259 31.1346 30.77C31.0353 30.8503 30.9448 30.9407 30.8646 31.04C30.6205 31.342 30.5159 31.7395 30.3067 32.5347L26.4885 47.0436C25.513 50.7507 25.0252 52.6043 25.791 53.7812C26.0321 54.1518 26.3482 54.4679 26.7188 54.709C27.8957 55.4748 29.7493 54.987 33.4564 54.0115L47.9653 50.1933C48.7605 49.9841 49.158 49.8795 49.46 49.6354C49.5593 49.5552 49.6497 49.4647 49.73 49.3654C49.9741 49.0634 50.0787 48.6659 50.2879 47.8707L52.0676 41.1081M39.3919 28.4324L52.0676 41.1081M39.3919 28.4324L42.5195 25.3048C43.4798 24.3445 43.9599 23.8644 44.5411 23.7724C44.7287 23.7426 44.9199 23.7426 45.1076 23.7724C45.6887 23.8644 46.1689 24.3445 47.1291 25.3048L55.1952 33.3709C56.1555 34.3311 56.6356 34.8113 56.7276 35.3924C56.7574 35.5801 56.7574 35.7713 56.7276 35.9589C56.6356 36.5401 56.1555 37.0202 55.1952 37.9805L52.0676 41.1081" stroke="#FBFBFB" stroke-width="1.7633" stroke-linecap="round" stroke-linejoin="round"/>
<path id="Vector_3" d="M36.9018 43.6063C35.5892 42.2937 35.5892 40.1655 36.9018 38.8529C38.2144 37.5403 40.3426 37.5403 41.6552 38.8529C42.9678 40.1655 42.9678 42.2937 41.6552 43.6063C40.3426 44.9189 38.2144 44.9189 36.9018 43.6063ZM36.9018 43.6063L32.1484 48.3597" stroke="#FBFBFB" stroke-width="2.71622" stroke-linecap="round" stroke-linejoin="round"/>
</g>
</g>
<defs>
<clipPath id="clip0_121_1345">
<rect width="80" height="80" fill="white" transform="translate(0.480469)"/>
</clipPath>
</defs>
</svg>
