<svg width="50" height="50" viewBox="0 0 24 24" fill="none" xmlns="http://www.w3.org/2000/svg">
<path fill-rule="evenodd" clip-rule="evenodd" d="M16.9156 5.8897C16.6592 5.83694 16.5311 5.81056 16.4085 5.77422C15.955 5.63979 15.5397 5.40002 15.1965 5.07449C15.1038 4.9865 15.0168 4.8887 14.843 4.69311C14.2962 4.07788 14.0228 3.77027 13.7478 3.57398C12.705 2.82975 11.3048 2.82975 10.2621 3.57398C9.98706 3.77027 9.71365 4.07788 9.16682 4.69311C8.99298 4.8887 8.90605 4.9865 8.8133 5.07449C8.47012 5.40002 8.05483 5.63979 7.60132 5.77422C7.47874 5.81056 7.35058 5.83694 7.09427 5.8897C6.28806 6.05565 5.88495 6.13863 5.57746 6.27865C4.41157 6.80955 3.71144 8.0222 3.83461 9.29734C3.8671 9.63365 3.99679 10.0242 4.25618 10.8054C4.33865 11.0538 4.37988 11.1779 4.4097 11.3023C4.52003 11.7622 4.52003 12.2418 4.4097 12.7017C4.37988 12.8261 4.33865 12.9502 4.25618 13.1986C3.99679 13.9798 3.8671 14.3704 3.83461 14.7067C3.71144 15.9818 4.41157 17.1945 5.57746 17.7254C5.88495 17.8654 6.28806 17.9484 7.09427 18.1143C7.35058 18.1671 7.47874 18.1934 7.60132 18.2298C8.05483 18.3642 8.47012 18.604 8.8133 18.9295C8.90605 19.0175 8.99298 19.1153 9.16682 19.3109C9.71365 19.9261 9.98706 20.2337 10.2621 20.43C11.3048 21.1743 12.705 21.1743 13.7478 20.43C14.0228 20.2337 14.2962 19.9261 14.843 19.3109C15.0168 19.1153 15.1038 19.0175 15.1965 18.9295C15.5397 18.604 15.955 18.3642 16.4085 18.2298C16.5311 18.1934 16.6592 18.1671 16.9156 18.1143C17.7218 17.9484 18.1249 17.8654 18.4324 17.7254C19.5983 17.1945 20.2984 15.9818 20.1752 14.7067C20.1427 14.3704 20.013 13.9798 19.7536 13.1986C19.6712 12.9502 19.6299 12.8261 19.6001 12.7017C19.4898 12.2418 19.4898 11.7622 19.6001 11.3023C19.6299 11.1779 19.6712 11.0538 19.7536 10.8054C20.013 10.0242 20.1427 9.63364 20.1752 9.29734C20.2984 8.0222 19.5983 6.80955 18.4324 6.27865C18.1249 6.13863 17.7218 6.05565 16.9156 5.8897ZM12.0049 14.4443C13.3538 14.4443 14.4472 13.3509 14.4472 12.002C14.4472 10.6531 13.3538 9.55968 12.0049 9.55968C10.6561 9.55968 9.56259 10.6531 9.56259 12.002C9.56259 13.3509 10.6561 14.4443 12.0049 14.4443Z" fill="#ffffff" fill-opacity="0.18" stroke="#292556" stroke-opacity="0.18" stroke-width="1.5" stroke-linejoin="round"></path>
<path d="M14.4472 12C14.4472 13.3486 13.3538 14.4419 12.0049 14.4419C10.6561 14.4419 9.56259 13.3486 9.56259 12C9.56259 10.6514 10.6561 9.55814 12.0049 9.55814C13.3538 9.55814 14.4472 10.6514 14.4472 12Z" stroke="#ffffff" stroke-width="1.5" stroke-linejoin="round"></path>
<path d="M9.16681 4.69252C9.71381 4.07721 9.98732 3.76955 10.2624 3.57326C11.305 2.82934 12.7048 2.82934 13.7474 3.57326C14.0225 3.76955 14.296 4.07721 14.843 4.69252V4.69252C15.0168 4.88804 15.1037 4.9858 15.1965 5.07375C15.5397 5.39927 15.955 5.63901 16.4085 5.77342C16.531 5.80973 16.6592 5.83611 16.9156 5.88887V5.88887C17.7213 6.05468 18.1241 6.13758 18.4312 6.27731C19.598 6.80814 20.2986 8.02162 20.1749 9.29747C20.1423 9.63332 20.0128 10.0234 19.7537 10.8036V10.8036C19.6713 11.0516 19.6301 11.1756 19.6003 11.2998C19.4898 11.7601 19.4898 12.2399 19.6003 12.7002C19.6301 12.8244 19.6713 12.9484 19.7537 13.1964V13.1964C20.0128 13.9766 20.1423 14.3667 20.1749 14.7025C20.2986 15.9784 19.598 17.1919 18.4312 17.7227C18.1241 17.8624 17.7213 17.9453 16.9156 18.1111V18.1111C16.6592 18.1639 16.531 18.1903 16.4085 18.2266C15.955 18.361 15.5397 18.6007 15.1965 18.9262C15.1037 19.0142 15.0168 19.112 14.843 19.3075V19.3075C14.296 19.9228 14.0225 20.2305 13.7474 20.4267C12.7048 21.1707 11.305 21.1707 10.2624 20.4267C9.98732 20.2305 9.71381 19.9228 9.16681 19.3075V19.3075C8.99299 19.112 8.90608 19.0142 8.81336 18.9262C8.47015 18.6007 8.05484 18.361 7.60132 18.2266C7.47878 18.1903 7.3506 18.1639 7.09424 18.1111V18.1111C6.28856 17.9453 5.88572 17.8624 5.57859 17.7227C4.41184 17.1919 3.71125 15.9784 3.83494 14.7025C3.8675 14.3667 3.99705 13.9766 4.25615 13.1964V13.1964C4.33854 12.9484 4.37973 12.8244 4.40953 12.7002C4.52001 12.2399 4.52001 11.7601 4.40953 11.2998C4.37973 11.1756 4.33854 11.0516 4.25615 10.8036V10.8036C3.99705 10.0234 3.8675 9.63332 3.83494 9.29747C3.71125 8.02163 4.41184 6.80814 5.5786 6.27731C5.88572 6.13758 6.28856 6.05468 7.09424 5.88887V5.88887C7.3506 5.83611 7.47878 5.80973 7.60131 5.77342C8.05484 5.63901 8.47015 5.39927 8.81336 5.07375C8.90608 4.9858 8.99299 4.88804 9.16681 4.69252V4.69252Z" stroke="#ffffff" stroke-width="1.5" stroke-linejoin="round"></path>
</svg>